<svg id="Hero" xmlns="http://www.w3.org/2000/svg" viewBox="0 0 1920 716">
  <title>jordanslibrary</title>
  <rect id="Backdrop" width="1920" height="716" fill="#d8d8d8"/>
  
  <g id="Clouds">
    <path d="M830.08,228.84s-21.15-74.13,44.71-72.42,51.26,56.24,39.71,77.91c0,0,45-42.76,78.45-17.73,38.27,28.68,25.06,50.07,18.36,54.29s-236.24,3.75-236.24,3.75-27.3-6.2-23.41-29.16,23.21-47.72,51.52-38.2C803.18,207.28,828,223.3,830.08,228.84Z" fill="#a5aeb7" opacity="0.85"/>
    <path d="M966.05,200.59s-25.52-89.48,54-87.42,61.87,67.89,47.93,94c0,0,54.37-51.62,94.68-21.41,46.2,34.63,30.25,60.44,22.16,65.54s-285.13,4.53-285.13,4.53-32.95-7.48-28.26-35.2,28-57.6,62.18-46.11C933.58,174.56,963.57,193.9,966.05,200.59Z" fill="#fff"/>
  </g>
  <path id="Cloud" d="M1112.26,449.39s-18.12-63.55,38.33-62.08,43.94,48.21,34,66.78c0,0,38.61-36.66,67.24-15.2,32.81,24.59,21.48,42.92,15.74,46.54s-202.5,3.22-202.5,3.22-23.4-5.32-20.06-25,19.89-40.91,44.16-32.75C1089.21,430.9,1110.5,444.64,1112.26,449.39Z" fill="#fff"/>
  <path id="Cloud-2" data-name="Cloud" d="M1361.74,162.19s-8.83-31,18.68-30.26,21.42,23.5,16.59,32.55c0,0,18.82-17.87,32.78-7.41,16,12,10.47,20.92,7.67,22.68s-98.7,1.57-98.7,1.57-11.41-2.59-9.78-12.18,9.69-19.94,21.52-16C1350.5,153.18,1360.88,159.87,1361.74,162.19Z" fill="#fff"/>
  <path id="Cloud-3" data-name="Cloud" d="M-30.6,146.54S-48.21,84.81,6.63,86.23s42.69,46.84,33.07,64.88c0,0,37.51-35.61,65.32-14.77,31.88,23.89,20.87,41.7,15.29,45.21s-196.72,3.13-196.72,3.13-22.73-5.16-19.49-24.29,19.32-39.74,42.9-31.81C-53,128.58-32.31,141.92-30.6,146.54Z" fill="#a5aeb7" opacity="0.85"/>
  <path id="Cloud-4" data-name="Cloud" d="M430.74,44.19s-8.83-31,18.68-30.26S470.84,37.43,466,46.48c0,0,18.82-17.87,32.78-7.41,16,12,10.47,20.92,7.67,22.68s-98.7,1.57-98.7,1.57S396.35,60.73,398,51.14s9.69-19.94,21.52-16C419.5,35.18,429.88,41.87,430.74,44.19Z" fill="#fff"/>
  <path id="Cloud-5" data-name="Cloud" d="M108.16,498.7s-15.17-53.18,32.08-52,36.77,40.35,28.49,55.9c0,0,32.32-30.68,56.28-12.73,27.46,20.58,18,35.93,13.17,39S68.7,531.56,68.7,531.56s-19.58-4.45-16.79-20.92,16.64-34.24,37-27.41C88.86,483.23,106.69,494.72,108.16,498.7Z" fill="#fff"/>
  <g id="Clouds-2" data-name="Clouds">
    <path d="M1717.16,390.48s-12.28-43,26-42,29.76,32.65,23.05,45.23c0,0,26.15-24.83,45.54-10.3,22.22,16.66,14.55,29.07,10.66,31.52s-137.15,2.18-137.15,2.18-15.84-3.59-13.59-16.93,13.48-27.7,29.91-22.18C1701.54,378,1716,387.27,1717.16,390.48Z" fill="#a5aeb7" opacity="0.85"/>
    <path d="M1681.74,404.19s-8.83-31,18.68-30.26,21.42,23.5,16.59,32.55c0,0,18.82-17.87,32.78-7.41,16,12,10.47,20.92,7.67,22.68s-98.7,1.57-98.7,1.57-11.41-2.59-9.78-12.18,9.69-19.94,21.52-16C1670.5,395.18,1680.88,401.87,1681.74,404.19Z" fill="#fff"/>
  </g>
  <path id="Cloud-6" data-name="Cloud" d="M1910.26,620.39s-18.12-63.55,38.33-62.08,43.94,48.21,34,66.78c0,0,38.61-36.66,67.24-15.2,32.81,24.59,21.48,42.92,15.74,46.54s-202.5,3.22-202.5,3.22-23.4-5.32-20.06-25,19.89-40.91,44.16-32.75C1887.21,601.9,1908.5,615.64,1910.26,620.39Z" fill="#fff"/>
  
  <text transform="translate(243.85 286.74)" font-size="107.51" fill="#fff" font-family="Righteous-Regular, Righteous">Jordan's</text>
  <text transform="translate(284.85 420.74)" font-size="155.58" fill="#7289a3" font-family="Righteous-Regular, Righteous">Library</text>
</svg>
