<svg id="Hero" xmlns="http://www.w3.org/2000/svg" viewBox="0 0 1920 716">
  <title>jordanslibrary</title>
  <rect id="Backdrop" width="1920" height="716" fill="#d8d8d8"/>
  
<g id="base-clouds" opacity="0.69">
    <path d="M966.58,228.84s-21.14-74.13,44.71-72.42,51.26,56.24,39.72,77.91c0,0,45-42.76,78.44-17.73,38.27,28.68,25.06,50.07,18.36,54.29s-236.24,3.75-236.24,3.75-27.3-6.2-23.41-29.16,23.21-47.72,51.52-38.2C939.68,207.28,964.52,223.3,966.58,228.84Z" fill="#a5aeb7" opacity="0.85"/>
    <path d="M1102.55,200.59s-25.52-89.48,54-87.42,61.87,67.89,47.93,94c0,0,54.37-51.62,94.68-21.41,46.2,34.63,30.25,60.44,22.16,65.54s-285.13,4.53-285.13,4.53-33-7.48-28.25-35.2,28-57.6,62.17-46.11C1070.08,174.56,1100.07,193.9,1102.55,200.59Z" fill="#fff"/>
  </g>
  <path id="base-clouds-2" data-name="base-clouds" d="M797.65,449.39S779.53,385.84,836,387.31s43.94,48.21,34,66.78c0,0,38.61-36.66,67.24-15.2,32.81,24.59,21.48,42.92,15.74,46.54s-202.5,3.22-202.5,3.22-23.4-5.32-20.06-25,19.89-40.91,44.16-32.75C774.6,430.9,795.89,444.64,797.65,449.39Z" fill="#fff" opacity="0.69"/>
  <path id="base-clouds-3" data-name="base-clouds" d="M506.69,176.19s-8.84-31,18.68-30.26,21.41,23.5,16.59,32.55c0,0,18.82-17.87,32.77-7.41,16,12,10.47,20.92,7.67,22.68s-98.7,1.57-98.7,1.57-11.4-2.59-9.78-12.18,9.7-19.94,21.53-16C495.45,167.18,505.83,173.87,506.69,176.19Z" fill="#fff" opacity="0.69"/>
  <path id="base-clouds-4" data-name="base-clouds" d="M760.28,124.54s-17.61-61.73,37.23-60.31,42.69,46.84,33.07,64.88c0,0,37.51-35.61,65.32-14.77,31.88,23.89,20.87,41.7,15.29,45.21s-196.72,3.13-196.72,3.13-22.73-5.16-19.49-24.29,19.32-39.74,42.9-31.81C737.88,106.58,758.57,119.92,760.28,124.54Z" fill="#a5aeb7" opacity="0.69"/>
  <path id="base-clouds-5" data-name="base-clouds" d="M83.69,44.19s-8.84-31,18.68-30.26S123.78,37.43,119,46.48c0,0,18.82-17.87,32.77-7.41,16,12,10.47,20.92,7.67,22.68s-98.7,1.57-98.7,1.57-11.4-2.59-9.78-12.18,9.7-19.94,21.53-16C72.45,35.18,82.83,41.87,83.69,44.19Z" fill="#fff" opacity="0.69"/>
  <path id="base-clouds-6" data-name="base-clouds" d="M1592.07,498.7s-15.17-53.18,32.07-52,36.78,40.35,28.5,55.9c0,0,32.31-30.68,56.27-12.73,27.46,20.58,18,35.93,13.17,39s-169.48,2.69-169.48,2.69-19.58-4.45-16.79-20.92,16.65-34.24,37-27.41C1572.77,483.23,1590.59,494.72,1592.07,498.7Z" fill="#fff" opacity="0.69"/>
  <g id="base-clouds-7" data-name="base-clouds" opacity="0.69">
    <path d="M222.93,390.48s-12.27-43,26-42,29.76,32.65,23.05,45.23c0,0,26.15-24.83,45.54-10.3C339.71,400,332,412.44,328.14,414.89S191,417.07,191,417.07s-15.85-3.59-13.59-16.93,13.47-27.7,29.9-22.18C207.31,378,221.74,387.27,222.93,390.48Z" fill="#a5aeb7" opacity="0.85"/>
    <path d="M187.51,404.19s-8.83-31,18.68-30.26,21.42,23.5,16.6,32.55c0,0,18.81-17.87,32.77-7.41,16,12,10.47,20.92,7.67,22.68s-98.7,1.57-98.7,1.57-11.4-2.59-9.78-12.18,9.7-19.94,21.52-16C176.27,395.18,186.65,401.87,187.51,404.19Z" fill="#fff"/>
  </g>
  <path id="base-clouds-8" data-name="base-clouds" d="M501.65,620.39S483.53,556.84,540,558.31s43.94,48.21,34,66.78c0,0,38.61-36.66,67.24-15.2,32.81,24.59,21.48,42.92,15.74,46.54s-202.5,3.22-202.5,3.22-23.4-5.32-20.06-25,19.89-40.91,44.16-32.75C478.6,601.9,499.89,615.64,501.65,620.39Z" fill="#fff" opacity="0.69"/>
  <path id="base-clouds-9" data-name="base-clouds" d="M1240.52,533.94s-13.24-46.43,28-45.36,32.1,35.22,24.87,48.79c0,0,28.21-26.78,49.12-11.1,24,18,15.7,31.35,11.5,34s-147.93,2.35-147.93,2.35-17.1-3.89-14.66-18.27,14.53-29.88,32.26-23.92C1223.68,520.43,1239.24,530.46,1240.52,533.94Z" fill="#a5aeb7" opacity="0.69"/>
  <g id="base-clouds-10" data-name="base-clouds" opacity="0.69">
    <path d="M1738.52,296.19s-14.69-51.49,31-50.3,35.6,39.06,27.58,54.11c0,0,31.28-29.7,54.47-12.32,26.58,19.92,17.41,34.78,12.75,37.71s-164,2.61-164,2.61-19-4.31-16.26-20.26,16.12-33.14,35.78-26.53C1719.84,281.21,1737.09,292.34,1738.52,296.19Z" fill="#a5aeb7" opacity="0.85"/>
    <path d="M1696.15,312.58s-10.57-37.05,22.35-36.2,25.61,28.11,19.84,38.94c0,0,22.52-21.37,39.21-8.86,19.13,14.33,12.52,25,9.17,27.13s-118.06,1.88-118.06,1.88-13.64-3.1-11.7-14.58,11.6-23.85,25.75-19.09C1682.71,301.8,1695.12,309.81,1696.15,312.58Z" fill="#fff"/>
  </g>
  <g id="base-clouds-11" data-name="base-clouds" opacity="0.69">
    <path d="M1440.52,665.19s-14.69-51.49,31-50.3,35.6,39.06,27.58,54.11c0,0,31.28-29.7,54.47-12.32,26.58,19.92,17.41,34.78,12.75,37.71s-164,2.61-164,2.61-19-4.31-16.26-20.26,16.12-33.14,35.78-26.53C1421.84,650.21,1439.09,661.34,1440.52,665.19Z" fill="#a5aeb7" opacity="0.85"/>
    <path d="M1398.15,681.58s-10.57-37.05,22.35-36.2,25.61,28.11,19.84,38.94c0,0,22.52-21.37,39.21-8.86,19.13,14.33,12.52,25,9.17,27.13s-118.06,1.88-118.06,1.88-13.64-3.1-11.7-14.58,11.6-23.85,25.75-19.09C1384.71,670.8,1397.12,678.81,1398.15,681.58Z" fill="#fff"/>
  </g>
  <g id="Clouds" opacity="0.69">
    <path d="M-206.47,199.59s-25.52-89.48,54-87.42,61.87,67.89,47.93,94c0,0,54.37-51.62,94.68-21.41,46.2,34.63,30.25,60.44,22.16,65.54s-285.13,4.53-285.13,4.53-32.95-7.48-28.25-35.2,28-57.6,62.17-46.11C-238.94,173.56-208.95,192.9-206.47,199.59Z" fill="#fff"/>
  </g>
  <path id="Cloud" d="M-140.37,448.39s-18.12-63.55,38.33-62.08S-58.1,434.52-68,453.09c0,0,38.6-36.66,67.23-15.2C32.05,462.48,20.73,480.81,15,484.43s-202.5,3.22-202.5,3.22-23.39-5.32-20.06-25,19.89-40.91,44.16-32.75C-163.42,429.9-142.12,443.64-140.37,448.39Z" fill="#fff" opacity="0.69"/>
  <path id="Cloud-2" data-name="Cloud" d="M-57.33,175.19s-8.84-31,18.68-30.26,21.41,23.5,16.59,32.55c0,0,18.82-17.87,32.77-7.41,16,12,10.47,20.92,7.67,22.68s-98.7,1.57-98.7,1.57-11.4-2.59-9.77-12.18,9.69-19.94,21.52-16C-68.57,166.18-58.19,172.87-57.33,175.19Z" fill="#fff" opacity="0.69"/>
  <path id="Cloud-3" data-name="Cloud" d="M-135.74,123.54s-17.61-61.73,37.23-60.31,42.69,46.84,33.07,64.88c0,0,37.51-35.61,65.32-14.77,31.88,23.89,20.87,41.7,15.29,45.21s-196.72,3.13-196.72,3.13-22.73-5.16-19.49-24.29,19.32-39.74,42.9-31.81C-158.14,105.58-137.45,118.92-135.74,123.54Z" fill="#a5aeb7" opacity="0.69"/>
  <path id="Cloud-4" data-name="Cloud" d="M-57.33,43.19s-8.84-31,18.68-30.26,21.41,23.5,16.59,32.55c0,0,18.82-17.87,32.77-7.41,16,12,10.47,20.92,7.67,22.68s-98.7,1.57-98.7,1.57-11.4-2.59-9.77-12.18,9.69-19.94,21.52-16C-68.57,34.18-58.19,40.87-57.33,43.19Z" fill="#fff" opacity="0.69"/>
  <path id="Cloud-5" data-name="Cloud" d="M-113.95,497.7s-15.17-53.18,32.08-52,36.77,40.35,28.49,55.9c0,0,32.31-30.68,56.27-12.73,27.46,20.58,18,35.93,13.17,39s-169.47,2.69-169.47,2.69-19.59-4.45-16.8-20.92,16.65-34.24,37-27.41C-133.25,482.23-115.43,493.72-113.95,497.7Z" fill="#fff" opacity="0.69"/>
  <g id="Clouds-2" data-name="Clouds" opacity="0.69">
    <path d="M-88.09,389.48s-12.27-43,26-42,29.76,32.65,23.06,45.23c0,0,26.14-24.83,45.53-10.3C28.69,399,21,411.44,17.12,413.89S-120,416.07-120,416.07s-15.85-3.59-13.59-16.93,13.47-27.7,29.9-22.18C-103.71,377-89.28,386.27-88.09,389.48Z" fill="#a5aeb7" opacity="0.85"/>
  </g>
  <path id="Cloud-6" data-name="Cloud" d="M-140.37,619.39s-18.12-63.55,38.33-62.08S-58.1,605.52-68,624.09c0,0,38.6-36.66,67.23-15.2C32.05,633.48,20.73,651.81,15,655.43s-202.5,3.22-202.5,3.22-23.39-5.32-20.06-25,19.89-40.91,44.16-32.75C-163.42,600.9-142.12,614.64-140.37,619.39Z" fill="#fff" opacity="0.69"/>
  <path id="Cloud-7" data-name="Cloud" d="M-96.72,532.94s-13.24-46.43,28-45.36,32.1,35.22,24.87,48.79c0,0,28.21-26.78,49.12-11.1,24,18,15.7,31.35,11.5,34s-147.94,2.35-147.94,2.35-17.09-3.89-14.65-18.27,14.53-29.88,32.26-23.92C-113.56,519.43-98,529.46-96.72,532.94Z" fill="#a5aeb7" opacity="0.69"/>
  <g id="Clouds-3" data-name="Clouds" opacity="0.69">
    <path d="M-109.62,295.19s-14.68-51.49,31.06-50.3S-43,284-51,299c0,0,31.28-29.7,54.47-12.32,26.58,19.92,17.4,34.78,12.75,37.71S-147.82,327-147.82,327s-19-4.31-16.25-20.26S-148,273.6-128.3,280.21C-128.3,280.21-111,291.34-109.62,295.19Z" fill="#a5aeb7" opacity="0.85"/>
  </g>
  <g id="Clouds-4" data-name="Clouds" opacity="0.69">
    <path d="M-109.62,664.19s-14.68-51.49,31.06-50.3S-43,653-51,668c0,0,31.28-29.7,54.47-12.32,26.58,19.92,17.4,34.78,12.75,37.71S-147.82,696-147.82,696s-19-4.31-16.25-20.26S-148,642.6-128.3,649.21C-128.3,649.21-111,660.34-109.62,664.19Z" fill="#a5aeb7" opacity="0.85"/>
  </g>

  <text transform="translate(243.85 286.74)" font-size="107.51" fill="#fff" font-family="Righteous-Regular, Righteous">Jordan's</text>
  <text transform="translate(284.85 420.74)" font-size="155.58" fill="#7289a3" font-family="Righteous-Regular, Righteous">Library</text>
</svg>
